HIERARCHY
ROOT reference
{
  OFFSET 0 0 0
  CHANNELS 6 Xposition Yposition Zposition Zrotation Xrotation Yrotation
  JOINT Hips
  {
    OFFSET 14.7528 85.8984 80.9429
    CHANNELS 6 Xposition Yposition Zposition Zrotation Xrotation Yrotation
    JOINT Spine
    {
      OFFSET 0 7.85829 0
      CHANNELS 6 Xposition Yposition Zposition Zrotation Xrotation Yrotation
      JOINT Spine1
      {
        OFFSET 0 25.1384 0
        CHANNELS 6 Xposition Yposition Zposition Zrotation Xrotation Yrotation
        JOINT Neck
        {
          OFFSET 0 25.0351 2.27592
          CHANNELS 6 Xposition Yposition Zposition Zrotation Xrotation Yrotation
          JOINT Head
          {
            OFFSET 0 13.4166 -1.91665
            CHANNELS 6 Xposition Yposition Zposition Zrotation Xrotation Yrotation
            End Site
            {
              OFFSET 0 23.9582 0
            }
          }
        }
        JOINT LeftShoulder
        {
          OFFSET 3.81534 24.0346 -0.234509
          CHANNELS 6 Xposition Yposition Zposition Zrotation Xrotation Yrotation
          JOINT LeftArm
          {
            OFFSET 8.62273 0 0
            CHANNELS 6 Xposition Yposition Zposition Zrotation Xrotation Yrotation
            JOINT LeftForeArm
            {
              OFFSET 31.7064 0 0
              CHANNELS 6 Xposition Yposition Zposition Zrotation Xrotation Yrotation
              JOINT LeftHand
              {
                OFFSET 23.7731 0 0
                CHANNELS 6 Xposition Yposition Zposition Zrotation Xrotation Yrotation
                End Site
                {
                  OFFSET 14.3749 0 0
                }
              }
            }
          }
        }
        JOINT RightShoulder
        {
          OFFSET -3.83608 24.0346 -0.234509
          CHANNELS 6 Xposition Yposition Zposition Zrotation Xrotation Yrotation
          JOINT RightArm
          {
            OFFSET -8.62273 0 0
            CHANNELS 6 Xposition Yposition Zposition Zrotation Xrotation Yrotation
            JOINT RightForeArm
            {
              OFFSET -31.7064 0 0
              CHANNELS 6 Xposition Yposition Zposition Zrotation Xrotation Yrotation
              JOINT RightHand
              {
                OFFSET -23.7731 0 0
                CHANNELS 6 Xposition Yposition Zposition Zrotation Xrotation Yrotation
                End Site
                {
                  OFFSET -14.3749 0 0
                }
              }
            }
          }
        }
      }
    }
    JOINT LeftUpLeg
    {
      OFFSET 9.58328 0 0
      CHANNELS 6 Xposition Yposition Zposition Zrotation Xrotation Yrotation
      JOINT LeftLeg
      {
        OFFSET 0 -36.4535 0
        CHANNELS 6 Xposition Yposition Zposition Zrotation Xrotation Yrotation
        JOINT LeftFoot
        {
          OFFSET 0 -41.4659 0
          CHANNELS 6 Xposition Yposition Zposition Zrotation Xrotation Yrotation
          JOINT LeftToeBase
          {
            OFFSET 0 -6.22913 14.3749
            CHANNELS 6 Xposition Yposition Zposition Zrotation Xrotation Yrotation
            End Site
            {
              OFFSET 0 0 3.83331
            }
          }
        }
      }
    }
    JOINT RightUpLeg
    {
      OFFSET -9.58328 0 0
      CHANNELS 6 Xposition Yposition Zposition Zrotation Xrotation Yrotation
      JOINT RightLeg
      {
        OFFSET 0 -36.4535 0
        CHANNELS 6 Xposition Yposition Zposition Zrotation Xrotation Yrotation
        JOINT RightFoot
        {
          OFFSET 0 -41.4659 0
          CHANNELS 6 Xposition Yposition Zposition Zrotation Xrotation Yrotation
          JOINT RightToeBase
          {
            OFFSET 0 -6.22913 14.3749
            CHANNELS 6 Xposition Yposition Zposition Zrotation Xrotation Yrotation
            End Site
            {
              OFFSET 0 0 3.83331
            }
          }
        }
      }
    }
  }
}
MOTION
Frames:	7
Frame Time:	0.004
0 0 0 0 0 -0 5.50906 77.3775 -201.65 1.66397 -0.392137 -0.734693 0 7.85829 0 -1.34138 -9.20077 -0.000172983 4.44089e-016 25.1384 -2.84217e-014 0.967807 -1.10466 0.117736 0 25.0351 2.27592 -3.30882 33.0379 1.79845 -1.33227e-015 13.4166 -1.91665 7.05349 -10.4596 2.96245 3.81534 24.0346 -0.234509 8.01546 2.99251 3.26828 8.62273 0 -2.84217e-014 -8.47818 2.7279 -4.8404 31.7064 -2.84217e-014 -2.84217e-014 2.64455 -4.70054 0.200067 23.7731 -2.84217e-014 -5.68434e-014 3.70123 -4.79808 -2.89205 -3.83608 24.0346 -0.234509 -6.56581 2.50018 5.23961 -8.62273 -2.84217e-014 0 4.83509 0.0987059 -0.855195 -31.7064 2.84217e-014 0 -3.38398 -5.17155 2.94074 -23.7731 0 2.84217e-014 -11.4916 -5.08884 0.0539412 9.58328 0 2.84217e-014 1.01417 7.94554 -1.40936 0 -36.4535 0 -8.23266 -4.40283 -0.805179 1.77636e-015 -41.4659 0 15.4942 -10.0063 8.13757 0 -6.22913 14.3749 2.48481e-015 -1.59028e-015 1.59028e-015 -9.58328 0 2.84217e-014 -0.99663 3.05914 3.00513 -8.88178e-016 -36.4535 0 3.77024 7.199 10.1025 0 -41.4659 0 -19.0873 -13.4592 -23.1759 3.55271e-015 -6.22913 14.3749 -1.98785e-015 0 -0 
0 0 0 0 0 -0 5.50906 77.3775 -201.65 1.67515 -0.358405 -0.746604 0 7.85829 0 -1.34138 -9.23042 -0.000172998 8.88178e-016 25.1384 0 0.962425 -1.10466 0.117736 0 25.0351 2.27592 -3.27366 33.0379 1.79845 4.44089e-016 13.4166 -1.91665 6.9889 -10.4298 2.95098 3.81534 24.0346 -0.234509 7.99916 3.01008 3.28288 8.62273 -2.84217e-014 2.84217e-014 -8.4747 2.72382 -4.84038 31.7064 0 -2.84217e-014 2.64461 -4.71628 0.200072 23.7731 -2.84217e-014 0 3.68369 -4.81305 -2.87963 -3.83608 24.0346 -0.234509 -6.56581 2.50018 5.23961 -8.62273 2.84217e-014 2.84217e-014 4.83481 0.080028 -0.855194 -31.7064 0 0 -3.36844 -5.14892 2.94064 -23.7731 2.84217e-014 0 -11.5191 -5.06747 0.0539394 9.58328 0 2.84217e-014 0.998283 7.90602 -1.41321 1.77636e-015 -36.4535 0 -8.22991 -4.40287 -0.769403 -8.88178e-016 -41.4659 0 15.4597 -9.9788 8.11899 -7.10543e-015 -6.22913 14.3749 8.94531e-016 7.95139e-016 -7.95139e-016 -9.58328 0 0 -1.00969 3.00767 2.99902 0 -36.4535 -2.84217e-014 3.76981 7.21959 10.1097 0 -41.4659 0 -19.0343 -13.4787 -23.1593 3.55271e-015 -6.22913 14.3749 1.78906e-015 3.18055e-015 1.59028e-015 
0 0 0 0 0 -0 5.50906 77.3775 -201.65 1.67797 -0.359088 -0.752915 0 7.85829 0 -1.34138 -9.23546 -0.000173 1.33227e-015 25.1384 0 0.981475 -1.10466 0.117736 0 25.0351 2.27592 -3.28851 33.0379 1.79845 -8.88178e-016 13.4166 -1.91665 6.9981 -10.4229 2.94669 3.81534 24.0346 -0.234509 7.99266 3.00535 3.27603 8.62273 -2.84217e-014 0 -8.49667 2.75186 -4.82708 31.7064 0 -2.84217e-014 2.64234 -4.72318 0.200074 23.7731 0 2.84217e-014 3.72855 -4.82163 -2.89273 -3.83608 24.0346 -0.234509 -6.57091 2.5002 5.23314 -8.62273 -5.68434e-014 -2.84217e-014 4.83528 0.111311 -0.855195 -31.7064 -2.84217e-014 0 -3.38077 -5.16272 2.9407 -23.7731 0 -2.84217e-014 -11.5201 -5.08047 0.0539405 9.58328 0 2.84217e-014 1.00032 7.90706 -1.41967 0 -36.4535 0 -8.22939 -4.40287 -0.76268 1.77636e-015 -41.4659 -2.84217e-014 15.489 -9.97155 8.13334 0 -6.22913 14.3749 1.59028e-015 0 -0 -9.58328 0 2.84217e-014 -1.011 3.00141 2.93872 0 -36.4535 0 3.75997 7.2354 10.2138 7.10543e-015 -41.4659 -2.84217e-014 -18.9807 -13.4845 -23.2004 -3.55271e-015 -6.22913 14.3749 1.98785e-016 -1.59028e-015 -0 
0 0 0 0 0 -0 5.50906 77.3775 -201.651 1.67911 -0.368765 -0.756949 8.88178e-016 7.85829 -2.84217e-014 -1.34103 -9.22763 0.001985 4.44089e-016 25.1384 0 0.986235 -1.10466 0.120393 0 25.0351 2.27592 -3.28613 33.027 1.79822 0 13.4166 -1.91665 6.99092 -10.3976 2.94636 3.81534 24.0346 -0.234509 7.98271 3.00894 3.27819 8.62273 2.84217e-014 2.84217e-014 -8.50321 2.76975 -4.82385 31.7064 0 2.84217e-014 2.66443 -4.7822 0.196655 23.7731 -2.84217e-014 0 3.68257 -4.87893 -2.8764 -3.83608 24.0346 -0.234509 -6.57918 2.50024 5.22308 -8.62273 2.84217e-014 -2.84217e-014 4.83463 0.068383 -0.847554 -31.7064 -2.84217e-014 -2.84217e-014 -3.36108 -5.14614 2.93713 -23.7731 0 0 -11.5408 -5.06434 0.0539391 9.58328 0 -2.84217e-014 0.99687 7.91481 -1.4234 1.77636e-015 -36.4535 0 -8.2312 -4.40285 -0.786189 0 -41.4659 -2.84217e-014 15.4633 -9.95857 8.15482 0 -6.22913 14.3749 6.95746e-016 1.59028e-015 -0 -9.58328 1.42109e-014 -2.84217e-014 -1.01774 3.00914 2.93379 0 -36.4535 0 3.7702 7.24516 10.2576 0 -41.4659 0 -19.1408 -13.4443 -23.2518 3.55271e-015 -6.22913 14.3749 5.96354e-016 -1.59028e-015 -0 
0 0 0 0 0 -0 5.50393 77.3775 -201.652 1.68044 -0.360987 -0.756032 0 7.85829 0 -1.34059 -9.2372 0.00474114 0 25.1384 -2.84217e-014 0.98735 -1.10497 0.123221 -1.77636e-015 25.0351 2.27592 -3.2896 33.0227 1.79814 -8.88178e-016 13.4166 -1.91665 6.98618 -10.3697 2.94337 3.81534 24.0346 -0.234509 7.96918 3.01393 3.28205 8.62273 0 0 -8.50438 2.76621 -4.81473 31.7064 0 0 2.6753 -4.7855 0.19878 23.7731 0 0 3.62912 -4.88118 -2.88272 -3.83608 24.0346 -0.234509 -6.58345 2.50019 5.23617 -8.62273 -2.84217e-014 -2.84217e-014 4.83506 0.080727 -0.864879 -31.7064 0 2.84217e-014 -3.36931 -5.14914 2.93361 -23.7731 0 0 -11.5364 -5.0677 0.0539394 9.58328 0 0 1.0088 7.90355 -1.42655 0 -36.4535 -2.84217e-014 -8.22698 -4.40291 -0.731218 -8.88178e-016 -41.4659 -2.84217e-014 15.4659 -9.97798 8.10656 0 -6.22913 14.3749 1.98785e-015 1.59028e-015 -7.95139e-016 -9.58328 1.42109e-014 -2.84217e-014 -1.00209 2.9988 2.90957 0 -36.4535 0 3.75887 7.24951 10.282 0 -41.4659 0 -19.1431 -13.4294 -23.2376 0 -6.22913 14.3749 -2.78299e-015 0 3.18055e-015 
0 0 0 0 0 -0 5.50226 77.3775 -201.653 1.68114 -0.383848 -0.767171 -8.88178e-016 7.85829 -2.84217e-014 -1.34014 -9.2101 0.00756485 -4.44089e-016 25.1384 -2.84217e-014 1.00289 -1.10529 0.126032 0 25.0351 2.27592 -3.26907 33.0323 1.79833 0 13.4166 -1.91665 6.93936 -10.3724 2.92898 3.81534 24.0346 -0.234509 7.95875 3.01656 3.2858 8.62273 -2.84217e-014 0 -8.51584 2.75974 -4.81455 31.7064 2.84217e-014 2.84217e-014 2.67966 -4.80615 0.201968 23.7731 2.84217e-014 0 3.61085 -4.90047 -2.85103 -3.83608 24.0346 -0.234509 -6.58405 2.50023 5.22548 -8.62273 0 -2.84217e-014 4.83504 0.067067 -0.861997 -31.7064 0 2.84217e-014 -3.36657 -5.15509 2.92983 -23.7731 -2.84217e-014 0 -11.5121 -5.0747 0.05394 9.58328 -1.42109e-014 0 1.01191 7.92578 -1.40578 1.77636e-015 -36.4535 0 -8.22955 -4.40341 -0.764655 0 -41.4659 0 15.5059 -9.99694 8.13287 7.10543e-015 -6.22913 14.3749 -1.39149e-015 1.59028e-015 -0 -9.58328 -1.42109e-014 -2.84217e-014 -1.00005 3.02523 2.95917 8.88178e-016 -36.4535 2.84217e-014 3.76904 7.23374 10.2012 7.10543e-015 -41.4659 0 -19.0679 -13.465 -23.2081 0 -6.22913 14.3749 1.98785e-015 1.59028e-015 1.59028e-015 
0 0 0 0 0 -0 5.50117 77.3775 -201.654 1.6823 -0.356321 -0.775989 8.88178e-016 7.85829 0 -1.3398 -9.2433 0.009687 0 25.1384 2.84217e-014 1.00842 -1.10563 0.128064 8.88178e-016 25.0351 2.27592 -3.28824 33.0287 1.79826 0 13.4166 -1.91665 6.95639 -10.3573 2.92818 3.81534 24.0346 -0.234509 7.94764 3.00613 3.28845 8.62273 0 -2.84217e-014 -8.52241 2.79454 -4.80356 31.7064 0 -2.84217e-014 2.68221 -4.83694 0.205405 23.7731 0 2.84217e-014 3.64193 -4.93226 -2.85747 -3.83608 24.0346 -0.234509 -6.5842 2.50028 5.21484 -8.62273 0 0 4.83517 0.065736 -0.85476 -31.7064 2.84217e-014 2.84217e-014 -3.36319 -5.15683 2.92377 -23.7731 2.84217e-014 2.84217e-014 -11.5372 -5.0765 0.0501235 9.58328 -1.42109e-014 -2.84217e-014 1.00261 7.8998 -1.42301 3.55271e-015 -36.4535 0 -8.23579 -4.40434 -0.701565 -1.77636e-015 -41.4659 2.84217e-014 15.4787 -9.98585 8.11219 0 -6.22913 14.3749 1.2921e-015 7.95139e-016 -0 -9.58328 -1.42109e-014 -2.84217e-014 -1.00698 2.99088 2.94826 0 -36.4535 0 3.76476 7.23759 10.2007 0 -41.4659 0 -19.103 -13.4461 -23.1721 -3.55271e-015 -6.22913 14.3749 1.98785e-016 -1.59028e-015 -0 
